<mxfile host="app.diagrams.net" modified="2023-12-04T20:04:16.563Z" agent="Mozilla/5.0 (Macintosh; Intel Mac OS X 10_15_7) AppleWebKit/537.36 (KHTML, like Gecko) Chrome/119.0.0.0 Safari/537.36" version="21.7.0" etag="f1FFVuUxUaFr_7O756fP" type="github">
  <diagram name="Страница — 1" id="Q1iCbmLB1zMGVr4j9XCK">
    <mxGraphModel>
      <root>
        <mxCell id="0" />
        <mxCell id="1" parent="0" />
      </root>
    </mxGraphModel>
  </diagram>
</mxfile>
